<?xml version="1.0" encoding="utf-8"?>
<!-- Generator: Adobe Illustrator 26.0.3, SVG Export Plug-In . SVG Version: 6.00 Build 0)  -->
<svg version="1.1" id="Ebene_1" xmlns="http://www.w3.org/2000/svg" xmlns:xlink="http://www.w3.org/1999/xlink" x="0px" y="0px"
	 viewBox="0 0 64 64" style="enable-background:new 0 0 64 64;" xml:space="preserve">
<style type="text/css">
	.st0{fill:#4D4D4D;}
</style>
<path class="st0" d="M63.7,30.7c-0.1-0.7-0.7-1.2-0.9-1.3C61.6,28.1,52.3,18,39.3,3.9c-0.6-0.6-1.2-1.1-1.7-1.7
	C37.3,2.1,37,2.1,37,2.1c-0.5,0.1-0.9,0.6-1,1.4c0,4.6,0,9.2,0,13.8c-11.8,0-23.4,0-35.1,0c-0.2,0-0.5,0.5-0.5,0.8
	c0,4.2,0,8.4,0,12.6c0,0.1,0,0.1,0,0.2c0,4.2,0,8.4,0,12.6c0,0.3,0.3,0.8,0.5,0.8c11.7,0,23.3,0,35.1,0c0,4.6,0,9.2,0,13.8
	c0.1,0.8,0.5,1.3,1,1.4c0.1,0,0.3,0,0.6-0.2c0.5-0.6,1.1-1.1,1.7-1.7c12.9-14.1,22.2-24.2,23.5-25.4c0.2-0.1,0.7-0.6,0.9-1.3h0
	L63.7,30.7L63.7,30.7L63.7,30.7z"/>
</svg>
