<?xml version="1.0" encoding="utf-8"?>
<!-- Generator: Adobe Illustrator 26.0.3, SVG Export Plug-In . SVG Version: 6.00 Build 0)  -->
<svg version="1.1" id="Ebene_1" xmlns="http://www.w3.org/2000/svg" xmlns:xlink="http://www.w3.org/1999/xlink" x="0px" y="0px"
	 viewBox="0 0 64 64" style="enable-background:new 0 0 64 64;" xml:space="preserve">
<style type="text/css">
	.st0{fill:#4D4D4D;}
</style>
<path class="st0" d="M32.1,63.6c0.7-0.1,1.2-0.7,1.3-0.9c1.3-1.2,11.4-10.5,25.5-23.5c0.6-0.6,1.1-1.2,1.7-1.7
	c0.1-0.3,0.1-0.6,0.1-0.6c-0.1-0.5-0.6-0.9-1.4-1c-4.6,0-9.2,0-13.8,0c0-11.8,0-23.4,0-35.1c0-0.2-0.5-0.5-0.8-0.5
	c-4.2,0-8.4,0-12.6,0c-0.1,0-0.1,0-0.2,0c-4.2,0-8.4,0-12.6,0c-0.3,0-0.8,0.3-0.8,0.5c0,11.7,0,23.3,0,35.1c-4.6,0-9.2,0-13.8,0
	c-0.8,0.1-1.3,0.5-1.4,1c0,0.1,0,0.3,0.2,0.6c0.6,0.5,1.1,1.1,1.7,1.7c14.1,12.9,24.2,22.2,25.4,23.5c0.1,0.2,0.6,0.7,1.3,0.9v0
	L32.1,63.6L32.1,63.6L32.1,63.6z"/>
</svg>
