<?xml version="1.0" encoding="utf-8"?>
<!-- Generator: Adobe Illustrator 26.0.3, SVG Export Plug-In . SVG Version: 6.00 Build 0)  -->
<svg version="1.1" id="Ebene_1" xmlns="http://www.w3.org/2000/svg" xmlns:xlink="http://www.w3.org/1999/xlink" x="0px" y="0px"
	 viewBox="0 0 64 64" style="enable-background:new 0 0 64 64;" xml:space="preserve">
<style type="text/css">
	.st0{fill:#4D4D4D;}
</style>
<path class="st0" d="M31.9,0.3c-0.7,0.1-1.2,0.7-1.3,0.9C29.3,2.4,19.2,11.7,5.1,24.7c-0.6,0.6-1.1,1.2-1.7,1.7
	C3.3,26.7,3.3,27,3.3,27c0.1,0.5,0.6,0.9,1.4,1c4.6,0,9.2,0,13.8,0c0,11.8,0,23.4,0,35.1c0,0.2,0.5,0.5,0.8,0.5c4.2,0,8.4,0,12.6,0
	c0.1,0,0.1,0,0.2,0c4.2,0,8.4,0,12.6,0c0.3,0,0.8-0.3,0.8-0.5c0-11.7,0-23.3,0-35.1c4.6,0,9.2,0,13.8,0c0.8-0.1,1.3-0.5,1.4-1
	c0-0.1,0-0.3-0.2-0.6c-0.6-0.5-1.1-1.1-1.7-1.7C44.7,11.8,34.6,2.5,33.4,1.2c-0.1-0.2-0.6-0.7-1.3-0.9l0,0H31.9L31.9,0.3L31.9,0.3z"
	/>
</svg>
