<?xml version="1.0" encoding="utf-8"?>
<!-- Generator: Adobe Illustrator 26.0.3, SVG Export Plug-In . SVG Version: 6.00 Build 0)  -->
<svg version="1.1" id="Ebene_1" xmlns="http://www.w3.org/2000/svg" xmlns:xlink="http://www.w3.org/1999/xlink" x="0px" y="0px"
	 viewBox="0 0 22 22" style="enable-background:new 0 0 22 22;" xml:space="preserve">
<g>
	<path d="M21.7,11c0,5.9-4.8,10.7-10.7,10.7C5.1,21.7,0.3,16.9,0.3,11C0.3,5.1,5.1,0.3,11,0.3C16.9,0.3,21.7,5.1,21.7,11z M11,19.1
		c4.5,0,8.1-3.6,8.1-8.1c0-4.5-3.6-8.1-8.1-8.1c-4.5,0-8.1,3.6-8.1,8.1C2.9,15.5,6.5,19.1,11,19.1z"/>
	<path d="M15.4,7c0.6,0.6,1.2,1.2,1.8,1.8c-2.6,2.6-5.2,5.2-7.9,7.7c-1.5-1.6-3-3.1-4.5-4.7c0.6-0.6,1.2-1.2,1.8-1.8
		C7.5,11.1,8.4,12,9.4,13C11.4,11,13.4,9,15.4,7z"/>
</g>
</svg>
