<?xml version="1.0" encoding="utf-8"?>
<!-- Generator: Adobe Illustrator 26.0.3, SVG Export Plug-In . SVG Version: 6.00 Build 0)  -->
<svg version="1.1" id="Ebene_1" xmlns="http://www.w3.org/2000/svg" xmlns:xlink="http://www.w3.org/1999/xlink" x="0px" y="0px"
	 viewBox="0 0 22 22" style="enable-background:new 0 0 22 22;" xml:space="preserve">
<style type="text/css">
	.st0{fill:#FFFFFF;}
</style>
<g>
	<path class="st0" d="M21.7,11c0,5.9-4.8,10.7-10.7,10.7S0.3,16.9,0.3,11S5.1,0.3,11,0.3S21.7,5.1,21.7,11z M11,19.1
		c4.5,0,8.1-3.6,8.1-8.1S15.5,2.9,11,2.9S2.9,6.5,2.9,11C2.9,15.5,6.5,19.1,11,19.1z"/>
	<path class="st0" d="M15.4,7c0.6,0.6,1.2,1.2,1.8,1.8c-2.6,2.6-5.2,5.2-7.9,7.7c-1.5-1.6-3-3.1-4.5-4.7C5.4,11.2,6,10.6,6.6,10
		c0.9,1.1,1.8,2,2.8,3C11.4,11,13.4,9,15.4,7z"/>
</g>
</svg>
