<?xml version="1.0" encoding="utf-8"?>
<!-- Generator: Adobe Illustrator 26.0.3, SVG Export Plug-In . SVG Version: 6.00 Build 0)  -->
<svg version="1.1" id="Ebene_1" xmlns="http://www.w3.org/2000/svg" xmlns:xlink="http://www.w3.org/1999/xlink" x="0px" y="0px"
	 viewBox="0 0 95.8 40" style="enable-background:new 0 0 95.8 40;" xml:space="preserve">
<style type="text/css">
	.st0{fill:#B354B3;}
	.st1{fill:#B252B2;}
	.st2{fill:#B353B3;}
	.st3{fill:#CF95CF;}
	.st4{fill:#9F289F;}
</style>
<g>
	<g>
		<path class="st0" d="M17.2,37.8c0.1-0.1,0.3-0.1,0.4,0C17.5,37.8,17.3,37.8,17.2,37.8z"/>
		<path class="st1" d="M53.8,37.8c0.1,0,0.3-0.1,0.4,0C54.1,37.8,53.9,37.8,53.8,37.8C53.8,37.8,53.7,37.8,53.8,37.8
			C53.8,37.8,53.8,37.8,53.8,37.8z"/>
		<path class="st2" d="M54.6,37.8c0.1-0.1,0.3-0.1,0.4,0C54.9,37.8,54.8,37.8,54.6,37.8z"/>
		<path class="st3" d="M53.8,37.8C53.8,37.8,53.8,37.8,53.8,37.8c-0.1,0-0.2,0-0.3,0C53.5,37.7,53.7,37.8,53.8,37.8z"/>
		<path class="st4" d="M66,5.7c0-0.4-0.1-0.7-0.4-1c-0.5-0.5-1-0.9-1.4-1.4C64.1,3.3,64,3.1,63.9,3c-0.3-0.5-0.7-0.8-1.2-0.8
			c-1.8,0-3.6,0-5.4,0c-0.8,0-1.2,0.5-1.3,1.3c0,0.1,0,0.3,0,0.4c0,3.3,0,6.6,0,9.9c0,0.6-0.1,1.2-0.4,1.7c-0.8,1.7-2.9,2.6-4.6,1.9
			c-0.2-0.1-0.3-0.2-0.4-0.4c-0.1-0.4-0.1-0.8-0.1-1.2c0-3.3,0-6.6,0-10c0-0.5-0.2-0.9-0.5-1.2c-0.5-0.4-0.9-0.9-1.3-1.3
			c-0.1-0.1-0.1-0.1-0.2-0.3c-0.2-0.6-0.7-0.9-1.3-0.9c-1.8,0-3.5,0-5.3,0c-0.9,0-1.3,0.5-1.3,1.3c0,0.1,0,0.2,0,0.2
			c0,3.3,0,6.6,0,10c0,0.6,0,1.1,0.1,1.7c0.3,2.3,1.2,4.4,2.7,6.1c0.3,0.4,0.7,0.7,1.1,1.1c-0.1,0.1-0.1,0.1-0.2,0.1
			c-0.7,0-1.5,0-2.2,0c-0.9,0-1.6,0.6-1.6,1.6c0,0.5,0,1,0.1,1.5c0.4,2.9,1.7,5.4,3.9,7.3c0.7,0.6,1.4,1.2,2,1.8
			c1.6,1.5,3.5,2.4,5.6,2.8c0.4,0.1,0.7,0.1,1.1,0.2c0,0,0.1,0,0.1,0c0.1-0.1,0.2,0,0.3,0c0.1,0,0.3,0,0.4,0c0.1,0,0.3,0,0.4,0
			c0.1,0,0.3,0,0.4,0c0.1,0,0.2,0,0.3,0c0.2-0.1,0.5-0.1,0.8-0.1c2.9-0.5,5.3-1.8,7.2-4c1.7-2.1,2.7-4.4,2.7-7.1
			C66.1,19.6,66,12.7,66,5.7z M62.8,28.8c-1.2,2.7-3.2,4.7-5.9,5.9c-4.5,2-9.6,0.8-12.9-2.6c-1.6-1.7-2.7-3.8-3-6.1
			c-0.1-0.6-0.1-1.1-0.1-1.7c0-0.7,0.5-1.2,1.2-1.2c1.1,0,2.1,0,3.3,0c-0.3-0.2-0.5-0.4-0.7-0.6c-2.2-2.1-3.5-4.6-3.8-7.7
			c0-0.4,0-0.8,0-1.2c0-3.2,0-6.4,0-9.7c0-0.1,0-0.2,0-0.3c0-0.8,0.4-1.1,1.2-1.1c1.6,0,3.1,0,4.7,0c0.2,0,0.4,0,0.5,0
			c0.7,0,1.1,0.4,1.1,1.1c0,0.1,0,0.2,0,0.3c0,3.3,0,6.7,0,10c0,1.2,0.4,2.2,1.3,3c2.6,2.2,6,0.5,6.6-2.1c0.1-0.3,0.1-0.7,0.1-1
			c0-3.3,0-6.5,0-9.8c0-0.1,0-0.2,0-0.2c0-0.8,0.4-1.2,1.2-1.2c1.3,0,2.6,0,3.9,0c0.4,0,0.7,0,1.1,0c0.8,0,1.3,0.5,1.3,1.3
			c0,6.8,0,13.6,0,20.4C63.8,25.7,63.5,27.3,62.8,28.8z"/>
		<path class="st4" d="M92.7,16.1c0-0.5,0-1-0.1-1.5c-0.3-2.3-1.2-4.3-2.6-6c-0.7-0.8-1.4-1.5-2.1-2.3c-3-3.4-6.8-4.7-11.3-3.8
			c-2.6,0.5-4.8,1.9-6.6,3.9c-1.7,2.1-2.7,4.5-2.7,7.2c0,6.9,0,13.9,0,20.8c0,0.5,0.2,0.9,0.6,1.1c0.4,0.3,0.7,0.6,1.1,1
			c0.5,0.5,0.9,1,1.5,1.3c2,0,3.9,0,5.9,0c0.7-0.2,1-0.5,1-1.3c0-0.1,0-0.2,0-0.3c0-2.9,0-5.8,0-8.7c0-0.1,0-0.2,0-0.3
			c0-0.2,0.1-0.2,0.2-0.2c0.9,0.3,1.9,0.4,2.9,0.5c0.6,0,1.2,0,1.8,0c0.4,0,0.4,0,0.4,0.3c0,1.6,0,3.3,0,4.9c0,0.6,0,1.1,0,1.7
			c0,0.5,0.2,0.9,0.6,1.1c0.3,0.2,0.6,0.4,0.8,0.6c0.3,0.3,0.7,0.7,1,1c0.2,0.2,0.5,0.4,0.8,0.5c2,0,3.9,0,5.9,0
			c0.3-0.1,0.6-0.3,0.8-0.6c0.1-0.2,0.1-0.5,0.1-0.8C92.7,29.7,92.7,22.9,92.7,16.1z M90.5,34.2c0,0.1,0,0.1,0,0.2
			c0,0.9-0.4,1.2-1.3,1.2c-1.7,0-3.3,0-5,0c-0.9,0-1.2-0.4-1.2-1.2c0-3.1,0-6.3,0-9.4c0-0.2,0-0.3-0.3-0.2c-2.4,0.9-4.9,0.8-7.4,0
			C75,24.7,75,24.7,75,25c0,3.1,0,6.1,0,9.2c0,0.1,0,0.2,0,0.2c0,0.8-0.4,1.2-1.2,1.2c-1.7,0-3.3,0-5,0c-0.8,0-1.3-0.5-1.3-1.3
			c0-6.8,0-13.5,0-20.3c0-4.9,3-9.1,7.2-10.7c4.5-1.7,8.6-0.9,12.2,2.4c1.8,1.6,2.8,3.6,3.3,6c0.2,0.8,0.2,1.6,0.2,2.4
			c0,3.2,0,6.4,0,9.6C90.5,27.2,90.5,30.7,90.5,34.2z"/>
		<path class="st4" d="M28.5,15.9c0-0.3,0-0.6,0-1c-0.2-2.6-1.3-4.9-3-6.8c-0.4-0.4-0.9-0.8-1.2-1.2c-2.4-3-5.4-4.7-9.3-4.7
			c-2.7,0-5.4,0-8.2,0c-0.7,0-1.5,0-2.2,0c-0.6,0-1.1,0.3-1.4,0.9c0,0,0,0.1-0.1,0.1c0,10.5,0,21.1,0,31.6c0.1,0.5,0.4,0.8,0.8,1
			c0.1,0.1,0.3,0.2,0.4,0.3c0.4,0.4,0.9,0.9,1.3,1.3c0.2,0.2,0.5,0.4,0.8,0.5c3.6,0,7.2,0,10.8,0c0.1,0,0.3,0,0.4,0
			c0.1,0,0.2,0,0.3,0c0.2-0.1,0.5-0.1,0.8-0.1c2.2-0.4,4.2-1.3,5.9-2.8c2.5-2.2,3.8-5,3.9-8.3C28.6,23,28.5,19.5,28.5,15.9z
			 M26.3,24.1c0,3.3-1.2,6.2-3.6,8.4c-1.8,1.7-4,2.7-6.5,3c-0.5,0.1-1.1,0.1-1.6,0.1c-3.2,0-6.5,0-9.7,0c-0.9,0-1.5-0.6-1.5-1.5
			c0-5,0-10.1,0-15.1c0-5.1,0-10.1,0-15.2c0-0.9,0.5-1.4,1.4-1.4c3.3,0,6.7,0,10,0c3.4,0,6.2,1.2,8.5,3.7c1.7,1.8,2.6,3.9,3,6.3
			c0.1,0.6,0.1,1.2,0.1,1.8C26.3,17.5,26.3,20.8,26.3,24.1z"/>
		<path class="st4" d="M39.1,4.6c-0.4-0.4-0.9-0.9-1.3-1.3c-0.1-0.1-0.2-0.2-0.3-0.4c-0.3-0.5-0.7-0.8-1.4-0.8c-1.6,0-3.3,0-4.9,0
			c-0.2,0-0.3,0-0.5,0.1c-0.7,0.3-1.1,0.9-1.1,1.7c0,10.1,0,20.2,0,30.3c0,0.1,0,0.2,0,0.2c0,0.4,0.1,0.8,0.5,1
			c0.5,0.3,0.9,0.7,1.3,1.1c0.5,0.4,0.8,1,1.4,1.2c1.9,0,3.9,0,5.8,0c0.8-0.3,0.9-0.5,0.9-1.4c0-0.1,0-0.1,0-0.2c0-1.6,0-3.3,0-4.9
			c0-8.4,0-16.9,0-25.3C39.6,5.4,39.5,5,39.1,4.6z M37.4,34.2c0,0.1,0,0.3,0,0.4c0,0.5-0.3,0.9-0.9,1c-0.1,0-0.3,0-0.4,0
			c-1.6,0-3.2,0-4.9,0c-0.9,0-1.3-0.5-1.3-1.3c0-10.2,0-20.3,0-30.5c0-0.8,0.5-1.4,1.4-1.4c1.6,0,3.2,0,4.8,0c0.8,0,1.3,0.5,1.3,1.3
			c0,5.1,0,10.2,0,15.3C37.4,24.1,37.4,29.2,37.4,34.2z"/>
		<path class="st4" d="M62.9,3.8c0-0.4,0-0.4-0.4-0.4c-1.6,0-3.2,0-4.7,0c-0.4,0-0.5,0-0.5,0.5c0,3.3,0,6.5,0,9.8c0,0.3,0,0.5,0,0.8
			c-0.3,1.9-1.4,3.4-3.3,4c-1.8,0.7-3.6,0.3-5-1.1c-1-1-1.5-2.2-1.5-3.6c0-3.3,0-6.7,0-10c0-0.4,0-0.4-0.4-0.4c-1.6,0-3.2,0-4.7,0
			c-0.4,0-0.5,0-0.5,0.5c0,3.2,0,6.4,0,9.6c0,0.6,0,1.2,0.1,1.7c0.3,2.4,1.3,4.5,3,6.2c3.2,3,6.9,3.8,11,2.4
			c0.4-0.1,0.9-0.3,1.3-0.5c0,0.3,0,0.7,0,1c0,2.7-2.2,4.8-4.9,4.9c-1.6,0-2.9-0.6-3.9-1.9c-0.6-0.8-1-1.8-1-2.9
			c0-0.4,0-0.4-0.4-0.4c-1.6,0-3.3,0-4.9,0c-0.3,0-0.4,0.1-0.4,0.3c0,0.9,0.1,1.7,0.3,2.6c1.5,5.4,6.5,8.4,11.4,7.8
			c4-0.5,6.9-2.7,8.6-6.4c0.6-1.3,0.8-2.7,0.8-4.1c0-3.6,0-7.1,0-10.7C62.9,10.2,62.9,7,62.9,3.8z M46.4,3.8c0.6,0,0.6,0,0.6,0.6
			c0,3.2,0,6.4,0,9.6c0,2.2,1.6,4.3,3.7,5c3.1,1,6.4-1,7-4.2c0.1-0.3,0.1-0.7,0.1-1c0-3.2,0-6.4,0-9.6c0-0.2,0.1-0.3,0.3-0.3
			c0.5,0,0.5,0,0.5,0.5c0,3.1,0,6.3,0,9.4c0,2.6-1.2,4.5-3.6,5.7c-2.2,1.1-5.3,0.8-7.4-1.6c-0.9-1.1-1.4-2.4-1.4-3.9
			c0-1.6,0-3.1,0-4.7c0,0,0,0,0,0c0-1.7,0-3.4,0-5.2C46.1,3.9,46.2,3.8,46.4,3.8z M45.1,3.8c0.5,0,0.5,0,0.5,0.5c0,1.6,0,3.2,0,4.8
			c0,1.5,0,3.1,0,4.6c0,1.7,0.5,3.2,1.6,4.4c1.1,1.3,2.6,2.1,4.3,2.2c3.6,0.4,6.5-2.1,7.2-5.3c0.1-0.5,0.1-1,0.1-1.5
			c0-3.2,0-6.4,0-9.6c0-0.2,0.1-0.3,0.3-0.3c0.5,0,0.5,0,0.5,0.5c0,3.2,0,6.3,0,9.5c0,2.2-0.8,4-2.4,5.5c-3.6,3.4-9.7,2.6-12-2.5
			c-0.4-0.9-0.6-1.9-0.6-2.9c0-3.3,0-6.5,0-9.8C44.9,3.9,44.9,3.8,45.1,3.8z M43.8,3.8c0.5,0,0.5,0,0.5,0.5c0,3.3,0,6.5,0,9.8
			c0,3.7,3,7,6.6,7.6c4.5,0.7,8.2-2.2,9.1-6.3c0.1-0.6,0.2-1.2,0.2-1.7c0-1.5,0-2.9,0-4.4c0-1.7,0-3.5,0-5.2c0-0.2,0-0.3,0.3-0.3
			c0.6,0,0.6,0,0.6,0.6c0,3.1,0,6.2,0,9.4c0,4.3-2.9,7.9-7.1,8.7c-2.7,0.6-5.2-0.1-7.3-1.9c-1.9-1.5-2.9-3.6-3.1-6
			c0-0.4,0-0.7,0-1.1c0-3.1,0-6.3,0-9.4C43.6,3.9,43.6,3.8,43.8,3.8z M46.6,24.4c0.3,0,0.3,0,0.4,0.3c0.2,2,1.3,3.4,3,4.3
			c2,1,4.6,0.6,6.4-1.4c0.9-1,1.3-2.2,1.3-3.5c0-0.3,0-0.7,0-1c0-0.1,0-0.2,0.1-0.2c0.2-0.2,0.5-0.3,0.7-0.5c0,1.3,0.1,2.6-0.4,3.8
			c-0.8,2.2-2.3,3.6-4.6,4c-3.5,0.7-6.9-1.8-7.4-5.3C46.1,24.4,46.1,24.4,46.6,24.4z M44.9,24.5c0.2-0.1,0.4,0,0.7-0.1
			c0.1,0,0.1,0.1,0.1,0.2c0.1,1.2,0.4,2.4,1.2,3.4c1.5,2.1,3.6,3,6.2,2.8c2.9-0.3,5.3-2.5,5.9-5.6c0.1-0.7,0.1-1.5,0.1-2.3
			c-0.1-0.7,0.1-1.2,0.8-1.6c-0.1,1.5,0.1,3-0.2,4.5c-0.8,3.2-3.5,5.5-6.8,5.7c-3.8,0.3-7.2-2.4-7.9-6.1c-0.1-0.3-0.1-0.6-0.1-0.9
			C44.9,24.5,44.9,24.5,44.9,24.5z M44.2,24.4c0.2,0,0.2,0,0.2,0.2c0.1,3.4,2.7,6.7,6.4,7.4c4.7,0.9,8.6-2.2,9.4-6.4
			c0.1-0.5,0.1-1,0.1-1.5c0-1,0-2,0-3c0-0.2,0-0.3,0.2-0.4c0.2-0.3,0.4-0.5,0.7-0.8c0,0.1,0,0.2,0,0.3c0,1.3,0,2.7,0,4
			c0.1,4-2.8,7.8-7.1,8.7c-2.7,0.6-5.2-0.1-7.4-1.8c-1.9-1.5-2.9-3.5-3.1-5.9C43.6,24.4,43.6,24.4,44.2,24.4z M54.9,33.8
			C50.4,35,45.8,33,43.5,29c-0.8-1.3-1.1-2.8-1.2-4.3c0-0.2,0-0.3,0.3-0.3c0.6,0,0.5,0,0.6,0.6c0.4,3.5,2.2,6,5.4,7.5
			c4.6,2.2,10.3,0.1,12.3-4.8c0.5-1.2,0.7-2.5,0.7-3.8c0-1.6,0-3.2,0-4.7c0-0.2,0-0.4,0.1-0.5c0.2-0.5,0.4-1,0.7-1.5
			c0,0.1,0,0.2,0,0.3c0,2.2,0,4.4,0,6.6C62.4,29,58.9,32.8,54.9,33.8z M62.3,14.1c0,2.9-1.3,5.3-3.4,7.2c-1.5,1.3-3.2,2.1-5.1,2.4
			c-2.4,0.4-4.7-0.1-6.8-1.4c-2.6-1.6-4.1-4-4.7-7c-0.1-0.6-0.1-1.1-0.1-1.7c0-3.2,0-6.4,0-9.6c0-0.3,0.1-0.3,0.3-0.3
			c0.5,0,0.5,0,0.5,0.5c0,3.3,0,6.5,0,9.8c0,4.6,3.7,8.2,7.6,8.8c5.1,0.9,9.9-2.5,10.7-7.6c0.1-0.6,0.1-1.2,0.1-1.7
			c0-1.4,0-2.8,0-4.3c0-1.8,0-3.5,0-5.3c0-0.2,0.1-0.3,0.3-0.3c0.5,0,0.5,0,0.5,0.5C62.4,7.6,62.4,10.9,62.3,14.1z"/>
		<path class="st4" d="M56,24.7c-1.9,0.6-3.8,0.7-5.7,0.4c-0.6-0.1-1.3-0.3-1.9-0.5c0,0.1,0,0.1,0,0.1c0.3,1.8,1.6,3,3.4,3.3
			c2.1,0.3,4-1,4.5-3.1C56.3,24.6,56.3,24.6,56,24.7z M51.9,27.8c-0.3,0-0.7-0.1-1-0.2c-0.2-0.1-0.4-0.4-0.3-0.6c0-0.1,0.1,0,0.2,0
			c0.7,0.2,1.4,0.4,2.1,0.5c0.2,0,0.4,0,0.7,0.1C53.1,27.8,52.5,27.9,51.9,27.8z"/>
		<path class="st4" d="M89.3,11.8c-0.5-2.1-1.5-4-3.1-5.5c-2.8-2.6-6.1-3.5-9.9-2.6c-4.7,1.2-7.9,5.4-7.9,10.2c0,6.8,0,13.6,0,20.3
			c0,0.4,0,0.4,0.4,0.4c1.6,0,3.2,0,4.8,0c0.4,0,0.4,0,0.4-0.4c0-3.6,0-7.1,0-10.7c0-0.1,0-0.2,0-0.3c3.3,1.6,6.5,1.6,9.8,0
			c0,0.1,0,0.2,0,0.3c0,3.6,0,7.2,0,10.7c0,0.4,0,0.4,0.4,0.4c1.6,0,3.2,0,4.8,0c0.4,0,0.4,0,0.4-0.4c0-6.7,0-13.5,0-20.2
			C89.5,13.3,89.5,12.5,89.3,11.8z M69.5,34.2c-0.5,0-0.5,0-0.5-0.5c0-5.4,0-10.7,0-16.1c0-0.1,0-0.2,0-0.3c0.2,0.5,0.5,1,0.7,1.5
			c0.1,0.1,0.1,0.2,0.1,0.3c0,4.9,0,9.9,0,14.8C69.8,34.2,69.7,34.2,69.5,34.2z M70.8,34.2c-0.5,0-0.5,0-0.5-0.5c0-4.5,0-9.1,0-13.6
			c0-0.1,0-0.2,0-0.4c0.3,0.4,0.5,0.8,0.8,1c0.1,0.1,0,0.2,0,0.2c0,4.3,0,8.6,0,13C71,34.2,71,34.2,70.8,34.2z M72.1,34.2
			c-0.6,0-0.6,0-0.6-0.6c0-4,0-8,0-12c0-0.1,0-0.2,0-0.3c0.3,0.2,0.5,0.5,0.7,0.7c0.1,0.1,0.1,0.2,0.1,0.3c0,3.5,0,7,0,10.4
			c0,0.4,0,0.8,0,1.3C72.3,34.2,72.3,34.2,72.1,34.2z M73.3,34.2c-0.5,0-0.5,0-0.5-0.5c0-3.6,0-7.3,0-10.9c0-0.1,0-0.2,0-0.4
			c0.3,0.2,0.5,0.3,0.7,0.5c0.1,0.1,0.1,0.2,0.1,0.3c0,1,0,2.1,0,3.1c0,2.5,0,5.1,0,7.6C73.6,34.1,73.6,34.2,73.3,34.2z M84.9,34.2
			c-0.5,0-0.5,0-0.5-0.5c0-6.6,0-13.1,0-19.7c0-2.6-1.7-4.7-4.1-5.3c-3.1-0.8-6.2,1.4-6.6,4.5c-0.4,3.2,2,5.7,4.6,6
			c2.3,0.3,4.4-0.8,5.5-2.9c0,0,0-0.1,0.1-0.1c0,0,0,0,0,0c0,0.4,0,0.9,0,1.3c0,0.1-0.1,0.2-0.2,0.3c-2.7,3.1-7.4,3-9.8-0.5
			c-2.2-3.1-0.9-7.5,2.6-9.1c3.4-1.6,7.9,0.3,8.7,4.6c0.1,0.4,0.1,0.7,0.1,1.1c0,6.6,0,13.3,0,19.9C85.2,34.2,85.2,34.2,84.9,34.2z
			 M83.9,14c0,2.7-2.2,4.8-5,4.8c-2.7,0-4.9-2.2-4.9-4.9c0-2.8,2.1-4.9,5-4.9C81.8,9,83.9,11.3,83.9,14z M86.1,34.2
			c-0.4,0-0.4,0-0.4-0.5c0-6.6,0-13.2,0-19.7c0-3.4-2.4-6-5.3-6.6c-3.6-0.8-7.3,1.7-8,5.3c-0.4,2.2,0.1,4.1,1.6,5.8
			c1.1,1.2,2.5,1.9,4.1,2.1c1.9,0.2,3.7-0.3,5.2-1.5c0.2-0.2,0.4-0.3,0.6-0.5c0,0.4,0,0.7,0,1c0,0.1-0.1,0.2-0.2,0.3
			c-1,0.8-2.2,1.4-3.5,1.6c-2.6,0.4-4.9-0.4-6.7-2.3C70,15.2,71.4,9,76.1,7c4.1-1.7,9.3,0.6,10.2,5.7c0.1,0.5,0.1,0.9,0.1,1.4
			c0,6.6,0,13.2,0,19.8C86.5,34.2,86.5,34.2,86.1,34.2z M87.5,34.2c-0.5,0-0.5,0-0.5-0.5c0-6.6,0-13.1,0-19.7c0-2-0.6-3.7-1.9-5.2
			c-1.8-2.1-4-3.1-6.8-2.9c-2.8,0.3-5,1.7-6.4,4.2c-1.8,3.2-1.2,8.2,3,10.6c2.8,1.6,6.2,1.4,8.7-0.5c0,0,0.1-0.1,0.2-0.1
			c0,0.3,0,0.6,0,0.9c0,0.1-0.1,0.2-0.2,0.3c-1.2,0.8-2.4,1.2-3.8,1.3c-2.7,0.2-5-0.6-7-2.4c-1.5-1.5-2.4-3.3-2.6-5.4
			c-0.5-4.3,2.5-8.5,6.9-9.5c2.9-0.6,5.5,0.1,7.7,2.2c1.4,1.3,2.4,3,2.7,4.9c0.1,0.5,0.1,1,0.1,1.6c0,6.6,0,13.3,0,19.9
			C87.8,34.2,87.7,34.2,87.5,34.2z M88.8,34.2c-0.6,0-0.6,0-0.6-0.6c0-6.5,0-13.1,0-19.6c0-2.7-0.9-5-2.9-6.9
			c-1.9-1.8-4.2-2.6-6.8-2.5c-4.4,0.2-7.9,3.4-8.6,7.6c-0.8,4.6,1.7,8.5,5.5,10.1c2.8,1.2,5.6,1,8.3-0.5c0.1,0,0.1-0.1,0.2-0.1
			c0,0,0,0,0.1,0c0,0.2,0,0.5,0,0.8c0,0.1-0.1,0.2-0.2,0.2c-1.2,0.6-2.4,1-3.7,1.2c-2.5,0.2-4.8-0.3-6.8-1.8
			C70.8,20.3,69.4,18,69,15c-0.6-5.3,3.1-9.8,7.4-10.8c3.6-0.9,6.8-0.1,9.5,2.5c1.5,1.5,2.5,3.2,2.9,5.3c0.1,0.7,0.2,1.3,0.2,2
			c0,6.6,0,13.3,0,19.9C89.1,34.2,89,34.2,88.8,34.2z"/>
		<path class="st4" d="M23.8,8.3c-2.1-3.2-5.1-4.9-9-4.9c-3.3,0-6.7,0-10,0c-0.5,0-0.5,0-0.5,0.5c0,5,0,10.1,0,15.1
			c0,5.1,0,10.1,0,15.2c0,0.5,0,0.5,0.5,0.5c3.3,0,6.6,0,10,0c0.5,0,1.1,0,1.6-0.1c2.2-0.3,4.1-1.3,5.7-2.8c2.2-2.1,3.3-4.7,3.3-7.8
			c0-3.4,0-6.7,0-10.1C25.4,11.9,24.9,10,23.8,8.3z M21.5,13.7c0-3.4-2.8-6.1-5.8-6.4c-0.3,0-0.6,0-0.9,0c-2.1,0-4.1,0-6.2,0
			c-0.4,0-0.4,0-0.4,0.4c0,7,0,14,0,21.1c0,0.4,0.1,0.3-0.3,0.4c-0.5,0-0.5,0-0.5-0.5c0-3.6,0-7.2,0-10.9c0-3.7,0-7.3,0-11
			c0-0.2,0-0.3,0.3-0.3c2.4,0,4.8,0,7.2,0c3.8,0,7,2.9,7.4,6.6c0,0.3,0.1,0.7,0.1,1c0,3.3,0,6.7,0,10c0,3.2-1.5,5.6-4.4,7
			c-0.9,0.5-2,0.6-3,0.6c-3.3,0-6.5,0-9.8,0c-0.2,0-0.3-0.1-0.3-0.3c0-0.5,0-0.5,0.5-0.5c3.2,0,6.4,0,9.6,0c3.1,0,5.5-2.2,6.3-4.6
			c0.2-0.6,0.3-1.2,0.3-1.9C21.5,20.8,21.5,17.2,21.5,13.7z M14.9,29.5c2.6,0,4.7-1.7,5.3-4.2c0.1-0.4,0.1-0.8,0.1-1.2
			c0-3.4,0-6.8,0-10.2c0-2.7-1.9-4.9-4.5-5.4c-0.3-0.1-0.6-0.1-0.9-0.1c-1.6,0-3.3,0-4.9,0c-0.4,0-0.4,0-0.4,0.4
			c0,6.6,0,13.2,0,19.8c0,0.4,0.1,0.4-0.4,0.4c-0.4,0-0.4,0-0.4-0.4c0-3.4,0-6.8,0-10.2c0-3.5,0-6.9,0-10.4c0-0.3,0.1-0.3,0.3-0.3
			c1.9,0,3.8,0,5.7,0c2.8,0,5.5,1.7,6.2,5.1c0.1,0.5,0.1,0.9,0.1,1.4c0,3.3,0,6.5,0,9.8c0,2.8-1.7,5.1-4,6c-0.8,0.3-1.5,0.4-2.3,0.4
			c-3.2,0-6.4,0-9.6,0c-0.2,0-0.3-0.1-0.3-0.3c0-0.5,0-0.5,0.5-0.5C8.5,29.5,11.7,29.5,14.9,29.5z M9.9,9.3c0-0.2,0-0.3,0.3-0.3
			c1.5,0,3,0,4.5,0c2.5,0,4.6,1.8,4.9,4.3c0,0.2,0,0.4,0,0.6c0,3.4,0,6.8,0,10.1c0,2.2-1.4,4.2-3.4,4.8c-0.5,0.2-1,0.2-1.6,0.2
			c-1.5,0-3,0-4.5,0c-0.2,0-0.3-0.1-0.3-0.3c0-3.2,0-6.5,0-9.7C10,15.8,10,12.6,9.9,9.3z M5.4,32.1c3.2,0,6.4,0,9.7,0
			c3.7,0,7-2.9,7.7-6.6c0.1-0.4,0.1-0.8,0.1-1.2c0-3.5,0-7.1,0-10.6c0-1.9-0.7-3.6-2-5C19.5,7.2,18,6.4,16.1,6
			c-0.4-0.1-0.8-0.1-1.3-0.1c-2.5,0-5,0-7.5,0c-0.4,0-0.4,0-0.4,0.4c0,7.4,0,14.9,0,22.3c0,0.4,0.1,0.4-0.4,0.4
			c-0.5,0-0.5,0-0.5-0.5c0-3.8,0-7.7,0-11.5c0-3.9,0-7.8,0-11.7c0-0.2,0.1-0.3,0.3-0.3c2.8,0,5.6,0,8.4,0c4.5-0.1,8,3.4,8.7,6.9
			c0.1,0.6,0.2,1.2,0.2,1.9c0,3.4,0,6.7,0,10.1c0,4.2-2.9,7.7-7,8.7c-0.6,0.1-1.3,0.2-1.9,0.2c-3.2,0-6.4,0-9.6,0
			c-0.2,0-0.3-0.1-0.3-0.3C4.8,32.1,4.8,32.1,5.4,32.1z M16.9,34c-0.7,0.1-1.3,0.2-2,0.2c-3.3,0-6.5,0-9.8,0c-0.2,0-0.3,0-0.3-0.3
			c0-0.5,0-0.5,0.5-0.5c3.2,0,6.5,0,9.7,0c3.9,0,7.4-2.7,8.6-6.5c0.3-0.8,0.4-1.7,0.4-2.6c0-3.6,0-7.1,0-10.7
			c-0.1-4.4-3.6-8.3-7.9-8.9c-0.5-0.1-0.9-0.1-1.4-0.1c-2.9,0-5.8,0-8.7,0c-0.4,0-0.4,0-0.4,0.4c0,7.9,0,15.7,0,23.6
			c0,0.4,0,0.4-0.4,0.4c-0.4,0-0.4,0-0.4-0.4c0-4.1,0-8.1,0-12.2c0-4.1,0-8.2,0-12.3c0-0.2,0-0.3,0.3-0.3c3.2,0,6.5,0,9.7,0
			c4.9-0.1,8.8,3.6,9.8,7.5c0.2,0.8,0.3,1.7,0.3,2.6c0,3.4,0,6.8,0,10.2C25,28.9,21.4,33.1,16.9,34z"/>
		<path class="st4" d="M36.1,3.4c-1.6,0-3.1,0-4.7,0c-0.5,0-0.5,0-0.5,0.5c0,5.1,0,10.1,0,15.2c0,5.1,0,10.2,0,15.3
			c0,0.4,0,0.4,0.4,0.4c1.6,0,3.3,0,4.9,0c0.3,0,0.4,0,0.4-0.4c0-10.2,0-20.3,0-30.5C36.5,3.4,36.4,3.4,36.1,3.4z M31.8,34.2
			c-0.4,0-0.4,0-0.4-0.5c0-4.9,0-9.8,0-14.7c0-4.9,0-9.9,0-14.8c0-0.3,0-0.4,0.3-0.3c0.5,0,0.5,0,0.5,0.5c0,9.8,0,19.6,0,29.5
			C32.2,34.3,32.2,34.2,31.8,34.2z M33.1,34.2c-0.5,0-0.5,0-0.5-0.5c0-9.8,0-19.6,0-29.5c0-0.4,0-0.4,0.4-0.4c0.5,0,0.5,0,0.5,0.5
			c0,4.9,0,9.8,0,14.7c0,4.9,0,9.9,0,14.8C33.5,34.1,33.4,34.2,33.1,34.2z M34.4,34.2c-0.5,0-0.5,0-0.5-0.5c0-9.8,0-19.6,0-29.5
			c0-0.4,0-0.4,0.4-0.4c0.1,0,0.2,0,0.2,0c0.1,0,0.2,0,0.2,0.2c0,0.1,0,0.1,0,0.2c0,4.9,0,9.9,0,14.8c0,5,0,9.9,0,14.9
			C34.7,34.2,34.7,34.2,34.4,34.2z M35.7,34.2c-0.5,0-0.5,0-0.5-0.5c0-9.8,0-19.6,0-29.5c0-0.4,0-0.4,0.4-0.4c0.1,0,0.2,0,0.2,0
			c0.1,0,0.2,0,0.2,0.2c0,0.1,0,0.1,0,0.2c0,4.9,0,9.9,0,14.8c0,5,0,9.9,0,14.9C36,34.2,36,34.2,35.7,34.2z"/>
		<path class="st4" d="M14.8,9.9c-1.2,0-2.4,0-3.7,0c-0.2,0-0.3,0.1-0.3,0.3c0,2.9,0,5.9,0,8.8s0,5.9,0,8.8c0,0.2,0.1,0.3,0.3,0.3
			c1.2,0,2.4,0,3.6,0c2.3,0,4-1.7,4.1-4c0-3.4,0-6.8,0-10.2C18.8,11.6,17.1,9.9,14.8,9.9z M18.6,24.1c0,1.7-1.3,3.3-2.9,3.6
			c-0.6,0.1-1.3,0.1-1.9,0.1c-0.6,0-0.6,0-0.6-0.6c0-2.4,0-4.9,0-7.3c0-2.5,0-5,0-7.5c0-0.3,0.1-0.3,0.3-0.3c1.2,0,2.3,0,3.5,0
			c0.4,0,0.8,0.1,1.2,0.2c0.1,0,0.2,0.1,0.2,0.2c0.2,0.5,0.3,1,0.3,1.5C18.5,17.4,18.6,20.8,18.6,24.1z"/>
	</g>
	<path class="st4" d="M79,9.9c-2.3,0-4,1.7-4,4c0,2.2,1.8,4,4,4c2.2,0,4-1.8,4-3.9C83,11.7,81.2,9.9,79,9.9z M81.7,16.4
		c-1.1,1.2-2.8,1.5-4.4,0.8c0-0.1-0.9-2.1,0.5-3.8c1.1-1.3,2.8-1.6,4.4-1.1C82.8,13.7,82.7,15.2,81.7,16.4z"/>
</g>
</svg>
