<?xml version="1.0" encoding="utf-8"?>
<!-- Generator: Adobe Illustrator 26.0.3, SVG Export Plug-In . SVG Version: 6.00 Build 0)  -->
<svg version="1.1" id="Ebene_1" xmlns="http://www.w3.org/2000/svg" xmlns:xlink="http://www.w3.org/1999/xlink" x="0px" y="0px"
	 viewBox="0 0 94 94" style="enable-background:new 0 0 94 94;" xml:space="preserve">
<style type="text/css">
	.st0{fill:#AA2CAA;}
	.st1{fill:#FEFEFE;}
	.st2{fill:#FDFCFD;}
</style>
<g>
	<path class="st0" d="M25,53.6c-2.4-2.1-4.3-4.4-5.9-7c-2.6-4.4-3.9-9.1-4-14.2c-0.1-8.9,0-17.7,0-26.6c0-2.6,1.1-3.7,3.7-3.7
		c4.3,0,8.5,0,12.8,0c1.7,0,2.8,0.6,3.5,2.2c0.4,0.9,1.2,1.4,1.8,2c3.8,3.8,3.2,2.6,3.3,7.9c0,7.4,0,14.7,0,22.1
		c0,0.6,0,1.2,0.1,1.8c0.2,2,0.5,2.2,2.4,2.6c5.9,1,11.1-3.4,11.2-9.4c0-8.2,0-16.4,0-24.7c0-0.6,0-1.2,0.1-1.8
		c0.2-1.5,1.2-2.6,2.7-2.6c4.7-0.1,9.3-0.1,14,0c1.1,0,2,0.6,2.5,1.5c0.9,1.6,2.4,2.7,3.6,3.9c0.4,0.4,0.8,0.8,1.2,1.1
		c0.7,0.7,1,1.5,1,2.5c0,17.4,0.1,34.9-0.1,52.3C78.8,76.3,69.6,89,54.3,91.5c-9.5,1.5-17.8-1.3-24.7-7.8c-2.3-2.1-4.9-4-7-6.3
		c-4.9-5.6-7.4-12.1-7.5-19.5c0-2.4,1.6-4,4-4c1.9,0,3.7,0,5.6,0C24.7,53.7,24.8,53.7,25,53.6z"/>
	<path class="st1" d="M27,54.5c-1.6-1.3-3-2.5-4.1-3.9c-4.4-5.1-7-11.1-7.1-17.9c-0.1-8.9-0.1-17.9,0-26.8c0-2.3,0.9-3.1,3.2-3.1
		c4.1,0,8.2,0,12.4,0c2.4,0,3.2,0.8,3.2,3.2c0,8.3,0,16.6,0,25c0,2.5,0.5,4.8,2.1,6.8c2.3,2.9,6.5,4.4,10.2,3.5c3.8-0.9,7-4.4,7.6-8
		c0.1-0.8,0.2-1.7,0.2-2.5c0-8,0-16.1,0-24.1c0-0.4,0-0.8,0-1.2c0.1-1.6,0.9-2.6,2.5-2.6c4.5-0.1,8.9,0,13.4,0
		c1.4,0,2.6,1.2,2.8,2.6c0.1,0.4,0.1,0.7,0.1,1.1c0,16.8,0,33.6,0,50.4c0,5.4-1.2,10.4-4,15C63,82.1,53.8,87,41.8,86.1
		c-12.5-1-22.9-10.4-25.5-22.7c-0.4-1.9-0.6-3.9-0.5-5.8c0-1.9,1.2-3,3.1-3C21.5,54.5,24.1,54.5,27,54.5z"/>
	<path class="st0" d="M71,32.7c0,8.1,0,16.2,0,24.2c0,12-7,22-18.4,25.7c-9.1,3-17.6,1.2-25-4.9c-6.1-5-9.1-11.7-9.5-19.5
		c-0.1-1.3,0-1.4,1.3-1.4c3.9,0,7.7,0,11.6,0c0.9,0,1.2,0.3,1.3,1.2c0.2,6.4,5,11.3,11.2,11.7c7.4,0.5,12.3-4.7,13.3-10.5
		c0.2-1,0-2.1,0.1-3.1c0.1-0.8-0.1-1-0.9-0.6c-4,1.9-8.3,2.9-12.8,2.6c-10.3-0.8-17.8-5.8-22.5-15.1c-1.7-3.3-2.5-6.9-2.6-10.6
		c-0.1-8.7,0-17.5,0-26.2c0-0.8,0.3-1.1,1.1-1.1c4,0,7.9,0,11.9,0c1,0,1.3,0.3,1.3,1.3c0,8.3,0,16.6,0,25c0,5.7,3.4,10.4,8.4,12
		c7.9,2.5,16.1-3.4,16.1-11.8c0.1-8.3,0-16.6,0-25c0-1.5,0-1.5,1.4-1.5c3.9,0,7.7,0,11.6,0c0.9,0,1.2,0.3,1.2,1.2
		C71,15.1,71,23.9,71,32.7z"/>
	<path class="st0" d="M44.4,67.4c-4.7,0-8.7-3.2-9.7-7.7c-0.1-0.3-0.2-0.6,0-0.9c0.2-0.2,0.4,0,0.7,0.1c6,1.9,11.9,1.9,17.9,0.1
		c0.3-0.1,0.7-0.4,0.9-0.2c0.3,0.3,0,0.6-0.1,1C53.1,64.4,49.2,67.5,44.4,67.4z"/>
	<path class="st1" d="M19.3,20.2c0-4.2,0-8.5,0-12.7c0-0.8,0-1.3,1.1-1.3c1,0,1,0.5,1,1.2c0,7.9,0,15.9,0,23.8
		c0,5.4,1.4,10.3,4.9,14.5c6.3,7.8,14.5,10.7,24.1,8.2c9.5-2.4,15.1-8.9,17-18.5c0.3-1.5,0.4-3,0.4-4.5c0-7.9,0-15.8,0-23.6
		c0-0.3-0.2-0.9,0.2-1c0.5-0.1,1.1-0.1,1.6,0c0.4,0.1,0.2,0.6,0.2,0.9c0,8,0,16.1,0,24.1c0,3.3-0.6,6.4-1.8,9.5
		c-4.2,10.3-14.6,16.7-25.6,15.8c-11.5-1-21.1-10-22.8-21.3c-0.3-1.8-0.3-3.6-0.3-5.4C19.3,26.7,19.3,23.5,19.3,20.2z"/>
	<path class="st1" d="M66.5,20.2c0,4,0,8,0,12c-0.2,11.2-9.3,20.7-20.4,21.4c-11.5,0.7-21.3-7-23.3-18.5c-0.2-1.2-0.3-2.3-0.3-3.5
		c0-8.1,0-16.2,0-24.2c0-0.8,0.1-1,1-1c0.9,0,1.1,0.2,1.1,1.1c0,8.2-0.1,16.4,0,24.6c0,9,6.4,16.9,15.1,19.1
		c11.5,2.8,22.9-4.9,24.6-16.5c0.2-1.2,0.2-2.4,0.2-3.5c0-7.9,0-15.8,0-23.6c0-0.3-0.2-0.8,0.3-0.9c0.5-0.1,1.1-0.1,1.6,0
		c0.4,0.1,0.2,0.6,0.2,0.9C66.6,11.6,66.6,15.9,66.5,20.2C66.5,20.2,66.5,20.2,66.5,20.2z"/>
	<path class="st1" d="M61.3,20c0-4.3,0-8.5,0-12.8c0-0.9,0.3-1,1-1c0.8,0,1,0.2,1,1c0,8.1,0,16.2,0,24.2c0,9.5-6.8,17.3-16.2,18.7
		C36.8,51.7,27,44.1,26,33.8c-0.1-1-0.1-2-0.1-3c0-7.8,0-15.6,0-23.4c0-0.3-0.2-0.9,0.2-1c0.5-0.1,1.1-0.2,1.6,0
		c0.4,0.1,0.2,0.7,0.2,1c0,7.9,0,15.9,0,23.8c0,1.4,0.1,2.7,0.4,4c1.4,7,7.6,12.4,14.7,13.1c10.8,1,18.6-8.2,18.4-16.9
		C61.2,27.6,61.3,23.8,61.3,20z"/>
	<path class="st1" d="M58,19.8c0-4.2,0-8.4,0-12.6c0-0.8,0.3-1,1-1c0.8,0,1,0.2,1,1c0,8.2,0,16.4,0,24.6C60,39.4,54,46,46.6,47
		c-7.6,1-14.9-3.7-17-11c-0.4-1.5-0.6-3-0.6-4.5c0-8.1,0-16.2,0-24.2c0-0.9,0.3-1,1.1-1c0.8,0,1,0.2,1,1c0,8.1,0,16.3,0,24.4
		c0,6,4.2,11.4,10,12.9c8.5,2.3,16.9-4.1,17-13C58.1,27.8,58,23.8,58,19.8z"/>
	<path class="st1" d="M69.6,40c0,6.8,0.6,13.6-0.1,20.3c-0.9,8.9-5.7,15.4-13.5,19.6c-14.6,7.7-32.6-0.8-36.2-17
		c-0.3-1.3-0.5-2.7-0.5-4c0-0.5,0-0.9,0.6-0.7c0.5,0.1,1.4-0.5,1.5,0.6c0.1,1.2,0.2,2.4,0.5,3.5c2.1,9.7,9.9,17,19.7,18.3
		c12.9,1.7,24.8-7.7,26-20.6c0.4-4.4,0.1-8.8,0.1-13.2c0-1.6,0.1-3,0.9-4.4C69.1,41.6,69.3,40.8,69.6,40z"/>
	<path class="st1" d="M66.6,46.4c-0.2,4.7,0.4,9.3-0.3,13.9c-1.2,8.3-5.8,14.2-13.4,17.5c-13,5.6-28.1-2.8-30.1-16.8
		c-0.1-0.5-0.1-1-0.2-1.5c-0.2-1.3,0-1.4,1.3-1.4c0.5,0,0.7,0.2,0.7,0.7c0.8,9.4,7.2,16.6,16.3,18.4c10.7,2.1,21.4-5.2,23.3-16
		c0.6-3.3,0.4-6.5,0.3-9.8C64.3,49.3,65.1,47.9,66.6,46.4z"/>
	<path class="st1" d="M63.3,50.5c-0.2,3.6,0.3,7.2-0.4,10.8C61,70.6,52.1,77.1,42.6,76.1c-9.1-1-15.9-8-16.8-17.1
		c0-0.4-0.2-1,0.5-0.9c0.5,0.1,1.4-0.5,1.5,0.7c0.8,7.8,5.9,13.6,13.6,15.1c9.1,1.9,18.3-4.6,19.7-13.8c0.3-2.2,0.2-4.4,0.2-6.6
		c0-1,0.1-1.8,1-2.3c0.3-0.2,0.5-0.6,0.7-0.8C63.1,50.4,63.2,50.4,63.3,50.5z"/>
	<path class="st1" d="M60,53.1c0,3.5,0.2,7-1.2,10.3c-2.8,6.5-9.3,10.4-16.2,9.5C35.6,72,30,66.5,29.1,59.5
		c-0.2-1.4-0.1-1.5,1.3-1.5c0.6,0,0.7,0.2,0.8,0.8c0.2,1.9,0.7,3.8,1.7,5.5c3,5.2,9.2,7.8,15.1,6.3C53.8,69,58,63.6,58,57.6
		c0-0.4,0.1-0.9,0-1.3C57.7,54.7,58.5,53.7,60,53.1z"/>
	<path class="st2" d="M40.3,64.5c2.4,0.8,4.8,1.4,7.5,1.4c-0.8,0.6-1.5,0.6-2.2,0.7c-1.3,0.1-2.6,0-3.9-0.3
		C40.3,66.1,40.3,66.1,40.3,64.5z"/>
</g>
</svg>
