<?xml version="1.0" encoding="utf-8"?>
<!-- Generator: Adobe Illustrator 26.0.3, SVG Export Plug-In . SVG Version: 6.00 Build 0)  -->
<svg version="1.1" id="Ebene_1" xmlns="http://www.w3.org/2000/svg" xmlns:xlink="http://www.w3.org/1999/xlink" x="0px" y="0px"
	 viewBox="0 0 64 64" style="enable-background:new 0 0 64 64;" xml:space="preserve">
<style type="text/css">
	.st0{fill:#4D4D4D;}
</style>
<g>
	<path class="st0" d="M1.5,43.7c0.2-0.4,0.3-0.8,0.5-1.2c0.7-1.8,2.2-2.8,4.2-2.9c4,0,8,0,12,0c2.4,0,4.3,2.1,4.4,4.9
		c0.1,2.8-1.8,5.1-4.3,5.2c-4.2,0.1-8.4,0.1-12.6,0c-1.8,0-3.1-1.2-3.8-2.8c-0.2-0.4-0.3-0.8-0.5-1.2C1.5,45,1.5,44.4,1.5,43.7z"/>
	<path class="st0" d="M29.4,62.4c0-11.2,0-22.3,0-33.5c0-0.6,0-1.2,0-1.9c1.4,0,2.8,0,4.3,0c0,11.8,0,23.6,0,35.3
		C32.3,62.4,30.8,62.4,29.4,62.4z"/>
	<path class="st0" d="M9.9,62.4c0-3.3,0-6.6,0-10c1.5,0,2.8,0,4.3,0c0,3.3,0,6.6,0,10C12.8,62.4,11.4,62.4,9.9,62.4z"/>
	<path class="st0" d="M49.7,62.4c0-7.5,0-15,0-22.6c1.5,0,2.8,0,4.3,0c0,7.7,0,15.1,0,22.6C52.5,62.4,51.1,62.4,49.7,62.4z"/>
	<path class="st0" d="M52,27.3c2,0,4,0,5.9,0c2.6,0,4.5,2.1,4.5,4.9c0.1,2.8-1.9,5.1-4.4,5.1c-4.1,0.1-8.1,0-12.2,0
		c-2.6,0-4.5-2.3-4.5-5.1c0.1-2.8,2-4.9,4.5-4.9C47.9,27.3,50,27.3,52,27.3z"/>
	<path class="st0" d="M31.5,24.3c-2,0-4,0-5.9,0c-2.6,0-4.6-2.3-4.5-5c0-2.7,2-5,4.5-5c4.1,0,8.1,0,12.2,0c2.5,0,4.4,2.3,4.5,5
		c0,2.8-1.9,5-4.5,5C35.5,24.3,33.5,24.3,31.5,24.3z"/>
	<path class="st0" d="M10,1.6c1.4,0,2.7,0,4.1,0c0,11.8,0,23.5,0,35.3c-1.4,0-2.7,0-4.1,0C10,25.2,10,13.5,10,1.6z"/>
	<path class="st0" d="M53.8,25.2c-1.4,0-2.7,0-4.1,0c0-7.8,0-15.6,0-23.5c1.3,0,2.6,0,4.1,0C53.8,9.4,53.8,17.2,53.8,25.2z"/>
	<path class="st0" d="M33.6,1.7c0,3.3,0,6.6,0,9.9c-1.4,0-2.7,0-4.1,0c0-3.3,0-6.6,0-9.9C30.8,1.7,32.2,1.7,33.6,1.7z"/>
</g>
</svg>
