<?xml version="1.0" encoding="utf-8"?>
<!-- Generator: Adobe Illustrator 26.0.3, SVG Export Plug-In . SVG Version: 6.00 Build 0)  -->
<svg version="1.1" id="Ebene_1" xmlns="http://www.w3.org/2000/svg" xmlns:xlink="http://www.w3.org/1999/xlink" x="0px" y="0px"
	 viewBox="0 0 22 22" style="enable-background:new 0 0 22 22;" xml:space="preserve">
<style type="text/css">
	.st0{fill:#4D4D4D;}
</style>
<g>
	<path class="st0" d="M20.3,11.8c-0.5,5-4.4,8.3-8.6,8.6c0,0.5,0,1,0,1.6c-0.5,0-1,0-1.5,0c0-0.5,0-1,0-1.6C8,20.1,6,19.2,4.4,17.6
		c-1.6-1.6-2.5-3.6-2.7-5.8c-0.5,0-1,0-1.6,0c0-0.5,0-1,0-1.6c0.5,0,1,0,1.5,0c0.8-4.9,3.7-7.8,8.6-8.6c0-0.5,0-1,0-1.5
		c0.5,0,1,0,1.6,0c0,0.5,0,1,0,1.5c4.9,0.8,7.8,3.7,8.6,8.6c0.5,0,1,0,1.5,0c0,0.5,0,1,0,1.6C21.4,11.8,20.9,11.8,20.3,11.8z
		 M11.8,17.2c0,0.5,0,1,0,1.6c3.6-0.2,6.7-3.4,7-7c-0.5,0-1,0-1.6,0c0-0.5,0-1,0-1.6c0.5,0,1,0,1.6,0c-0.2-3.6-3.4-6.7-7-7
		c0,0.5,0,1,0,1.6c-0.5,0-1,0-1.6,0c0-0.5,0-1,0-1.6c-3.6,0.2-6.7,3.4-7,7c0.5,0,1,0,1.6,0c0,0.5,0,1,0,1.6c-0.5,0-1,0-1.6,0
		c0.2,3.6,3.4,6.7,7,7c0-0.5,0-1,0-1.6C10.7,17.2,11.3,17.2,11.8,17.2z"/>
	<path class="st0" d="M4.8,10.2C5,9.1,5.4,8.1,6.1,7.2c1-1.3,2.3-2.1,3.9-2.3c0.1,0,0.1,0,0.2,0c0,1.7,0,3.4,0,5.1
		c0,0.1,0,0.2,0,0.3C8.4,10.2,6.6,10.2,4.8,10.2z"/>
	<path class="st0" d="M10.2,17.2C9.1,17,8,16.6,7.1,15.9c-1.2-1-2-2.3-2.3-3.9c0-0.1,0-0.1,0-0.2c1.7,0,3.4,0,5.1,0
		c0.1,0,0.2,0,0.3,0C10.2,13.6,10.2,15.4,10.2,17.2z"/>
	<path class="st0" d="M17.2,11.8c-0.2,1.1-0.6,2.2-1.3,3.1c-1,1.3-2.3,2.1-3.9,2.3c-0.1,0-0.1,0-0.2,0c0-1.7,0-3.4,0-5.1
		c0-0.1,0-0.2,0-0.3C13.6,11.8,15.4,11.8,17.2,11.8z"/>
	<path class="st0" d="M11.8,4.8C12.9,5,14,5.4,14.9,6.1c1.2,1,2,2.3,2.3,3.9c0,0.1,0,0.1,0,0.2c-1.7,0-3.4,0-5.1,0
		c-0.1,0-0.2,0-0.3,0C11.8,8.4,11.8,6.6,11.8,4.8z"/>
</g>
</svg>
