<?xml version="1.0" encoding="utf-8"?>
<!-- Generator: Adobe Illustrator 26.0.3, SVG Export Plug-In . SVG Version: 6.00 Build 0)  -->
<svg version="1.1" id="Ebene_1" xmlns="http://www.w3.org/2000/svg" xmlns:xlink="http://www.w3.org/1999/xlink" x="0px" y="0px"
	 viewBox="0 0 22 22" style="enable-background:new 0 0 22 22;" xml:space="preserve">
<style type="text/css">
	.st0{fill:#4D4D4D;}
</style>
<path class="st0" d="M9.5,11.9"/>
<g>
	<path class="st0" d="M4.8,10.2c0.2-1.1,0.6-2.1,1.3-3c1-1.3,2.3-2.1,3.9-2.3c0.1,0,0.1,0,0.2,0c0,1.7,0,3.4,0,5.1
		c0,0.1,0,0.2,0,0.3C8.4,10.2,6.6,10.2,4.8,10.2z"/>
	<path class="st0" d="M11.8,4.8C12.9,5,14,5.4,14.9,6.1c1.2,1,2,2.3,2.3,3.9c0,0.1,0,0.1,0,0.2c-1.7,0-3.4,0-5.1,0
		c-0.1,0-0.2,0-0.3,0C11.8,8.4,11.8,6.6,11.8,4.8z"/>
	<path class="st0" d="M11.4,14c-0.6,0-1.2,0-1.9,0c-0.5,0-1-0.5-0.9-1.1c0.1-0.5,0.5-0.8,1-0.8c1.2,0,2.4,0,3.7,0c0.1,0,0.1,0,0.2,0
		h2c0.9,0,1.9,0,2.8,0c-0.2-0.2-0.5-0.5-0.8-0.8c-0.2-0.2-0.3-0.5-0.2-0.9c0.1-0.8,1-0.9,1.6-0.4c0.8,0.6,1.4,1.3,2,2
		c0.2,0.2,0.5,0.5,0.6,0.8c0,0.1,0,0.2,0,0.3c-0.1,0.2-0.6,0.7-0.6,0.8c0,0-1.1,1.1-1.6,1.6c-0.1,0.1-0.2,0.4-0.5,0.5
		c-0.5,0.4-1.1,0.2-1.4-0.2c-0.2-0.3-0.2-0.6,0-1c0-0.1,0.1-0.1,0.1-0.2c0.2-0.2,0.5-0.4,0.8-0.6c-1,0-1.9,0-2.8,0h-2"/>
	<path class="st0" d="M17.4,16.5c-0.2-0.1-0.4-0.2-0.5-0.3c-1.3,1.5-3.1,2.5-5.1,2.6c0-0.6,0-1.1,0-1.6c-0.5,0-1.1,0-1.6,0
		c0,0.6,0,1.1,0,1.6c-3.6-0.3-6.8-3.4-7-7c0.6,0,1.1,0,1.6,0c0-0.6,0-1.1,0-1.6c-0.6,0-1.1,0-1.6,0c0.3-3.6,3.4-6.8,7-7
		c0,0.6,0,1.1,0,1.6c0.6,0,1.1,0,1.6,0c0-0.6,0-1.1,0-1.6c3.3,0.3,6.2,2.9,6.9,6c0,0,0.1,0,0.1,0c0.2,0.1,0.3,0.2,0.4,0.3
		c0.8,0.7,1.6,1.5,2.3,2.2c0.1,0,0.2,0,0.4,0c0-0.6,0-1.1,0-1.6c-0.5,0-1,0-1.5,0c-0.8-4.9-3.7-7.8-8.6-8.6c0-0.5,0-1,0-1.5
		c-0.6,0-1.1,0-1.6,0c0,0.5,0,1,0,1.5c-4.9,0.8-7.8,3.7-8.6,8.6c-0.5,0-1,0-1.5,0c0,0.6,0,1.1,0,1.6c0.6,0,1.1,0,1.6,0
		C1.9,14,2.8,16,4.4,17.5C6,19.2,8,20,10.2,20.4c0,0.6,0,1.1,0,1.6c0.5,0,1,0,1.5,0c0-0.6,0-1.1,0-1.6c2.7-0.2,5.2-1.3,6.8-3.7"/>
	<path class="st0" d="M9.2,14.4c-0.1,0-0.1,0-0.2,0c-0.5,0-0.8-0.4-0.8-0.5c-0.3-0.3-0.3-0.7-0.3-1.1c0-0.4,0-0.7,0.2-0.9
		c0.1-0.1,0.2-0.2,0.3-0.2c-1.2,0-2.4,0-3.6,0c0,0.1,0,0.1,0,0.2c0.3,1.6,1.1,2.9,2.3,3.9c0.9,0.7,2,1.1,3.1,1.3c0-0.9,0-1.8,0-2.7
		C9.9,14.4,9.5,14.4,9.2,14.4z"/>
	<path class="st0" d="M11.8,14.5c0,0.9,0,1.8,0,2.7c0.1,0,0.1,0,0.2,0c1.6-0.3,2.9-1.1,3.9-2.3c0.1-0.1,0.2-0.3,0.3-0.4H11.8z"/>
</g>
</svg>
