<?xml version="1.0" encoding="utf-8"?>
<!-- Generator: Adobe Illustrator 26.0.3, SVG Export Plug-In . SVG Version: 6.00 Build 0)  -->
<svg version="1.1" id="Ebene_1" xmlns="http://www.w3.org/2000/svg" xmlns:xlink="http://www.w3.org/1999/xlink" x="0px" y="0px"
	 viewBox="0 0 64 64" style="enable-background:new 0 0 64 64;" xml:space="preserve">
<style type="text/css">
	.st0{fill:none;}
	.st1{fill:#4D4D4D;}
</style>
<path class="st0" d="M36.5,15.8c-1.1,0.1-2.2,0.2-3.4,0.3c-8.8,0.8-17.7,1.6-26.5,2.4c-1.4,0.1-2.2,1-2.1,2.4c0.1,1,0.2,2,0.3,3
	C5.5,31.8,6.2,39.7,7,47.6c0.1,1.4,1,2.2,2.4,2.1c5.6-0.5,11.1-1,16.6-1.5c4.4-0.4,8.8-0.8,13.3-1.2c1.6-0.1,2.4-1.1,2.3-2.7
	c0-0.3-0.1-0.7-0.1-1h-2v-0.5h2c-0.1-1.6-0.3-3.2-0.4-4.8h-1.2v-0.4h1.2c-0.6-6.5-1.2-13.1-1.8-19.6C39,16.5,38,15.6,36.5,15.8z"/>
<path class="st1" d="M40,43.1c-2.2,0-4,0-6.2,0c-1.8,0-3.6,0-5.5,0c-1.5,0-2.9-1.5-2.6-3.3c0.4-1.5,1.5-2.2,2.9-2.2
	c3.6,0,6.9,0,10.6,0c0.4,0,0.4,0,0.7,0l5.8,0c2.6,0,5.5,0,8,0c-0.7-0.7-1.5-1.5-2.2-2.2c-0.7-0.7-1.1-1.5-0.7-2.6
	c0.4-2.2,2.9-2.6,4.7-1.1c2.2,1.8,4.1,3.9,5.8,5.8c0.6,0.7,1.4,1.4,1.6,2.2c0.1,0.3,0.1,0.6,0.1,0.9c-0.4,0.7-1.7,2.1-1.7,2.2
	c-0.1,0.1-3.2,3.1-4.7,4.6c-0.4,0.4-0.7,1.1-1.5,1.5c-1.5,1.1-3.3,0.7-4-0.7c-0.6-0.9-0.5-1.8,0.1-2.8c0.1-0.2,0.2-0.3,0.3-0.5
	c0.7-0.7,1.5-1.1,2.2-1.8c-2.9,0-5.5,0-8,0H40z"/>
<path class="st1" d="M41.4,45.3c-0.2,1-1,1.5-2.2,1.7c-4.4,0.4-8.8,0.8-13.3,1.2c-5.5,0.5-11,1-16.6,1.5C8,49.8,7.1,49,7,47.6
	c-0.7-7.9-1.4-15.8-2.2-23.7c-0.1-1-0.2-2-0.3-3c-0.1-1.4,0.7-2.3,2.1-2.4c8.8-0.8,17.7-1.6,26.5-2.4c1.1-0.1,2.2-0.2,3.4-0.3
	c1.5-0.1,2.4,0.7,2.6,2.2c0.5,5.8,1.1,11.7,1.6,17.5h2.9c-0.6-6.7-1.2-13.4-1.9-20.1c-0.1-1.6-1-2.4-2.8-2.3
	c-3.4,0.3-6.9,0.6-10.4,0.9c-3.9,0.4-7.7,0.7-11.6,1.1c-4.4,0.4-8.9,0.8-13.3,1.2c-1.5,0.1-2.3,1.1-2.1,2.6c0.2,2.7,0.5,5.3,0.7,8
	C3.1,37,4.1,47.3,5,57.5c0.1,1.6,1.1,2.4,2.6,2.3c1.7-0.1,3.4-0.3,5.1-0.5c4.4-0.4,8.8-0.8,13.1-1.2c5.8-0.5,11.5-1,17.3-1.6
	c1.4-0.1,2.2-1.1,2.1-2.5c-0.2-2.9-0.5-5.8-0.8-8.7H41.4z"/>
<path class="st1" d="M50.8,10.5C39.3,8.3,27.9,6.2,16.4,4c-1.8-0.3-2.8,0.3-3.1,2.1c-0.4,1.9-0.7,3.9-1.1,5.8
	c-0.2,0.9,0.1,1.3,1,1.5c0.9,0.2,1.6-0.2,1.8-1c0.3-1.3,0.5-2.6,0.8-3.9C16,7.4,17.1,6.7,18.3,7c1.9,0.3,3.7,0.7,5.6,1
	c5,0.9,10,1.9,14.9,2.8c3.1,0.6,6.1,1.1,9.1,1.7c1.4,0.3,2.1,1.3,1.8,2.7c-0.3,1.5-0.5,3-0.8,4.4c-0.6,3.3-1.3,6.7-1.9,10
	c-0.4,1.9-0.2,3.9-0.1,5.8h1.8c1.4-7.2,2.7-14.5,4.1-21.7C53.3,11.8,52.7,10.9,50.8,10.5z"/>
</svg>
