<?xml version="1.0" encoding="utf-8"?>
<!-- Generator: Adobe Illustrator 26.0.3, SVG Export Plug-In . SVG Version: 6.00 Build 0)  -->
<svg version="1.1" id="Ebene_1" xmlns="http://www.w3.org/2000/svg" xmlns:xlink="http://www.w3.org/1999/xlink" x="0px" y="0px"
	 viewBox="0 0 64 64" style="enable-background:new 0 0 64 64;" xml:space="preserve">
<style type="text/css">
	.st0{fill:#4D4D4D;}
</style>
<path class="st0" d="M1.5,43.7c0.2-0.4,0.3-0.8,0.5-1.2c0.7-1.8,2.2-2.8,4.2-2.9c4,0,8,0,12,0c2.4,0,4.3,2.1,4.4,4.9
	c0.1,2.8-1.8,5.1-4.3,5.2c-4.2,0.1-8.4,0.1-12.6,0c-1.8,0-3.1-1.2-3.8-2.8c-0.2-0.4-0.3-0.8-0.5-1.2C1.5,45,1.5,44.4,1.5,43.7z"/>
<path class="st0" d="M9.9,62.4c0-3.3,0-6.6,0-10c1.5,0,2.8,0,4.3,0c0,3.3,0,6.6,0,10C12.8,62.4,11.4,62.4,9.9,62.4z"/>
<path class="st0" d="M31.5,24.3c-2,0-4,0-5.9,0c-2.6,0-4.6-2.3-4.5-5c0-2.7,2-5,4.5-5c4.1,0,8.1,0,12.2,0c2.5,0,4.4,2.3,4.5,5
	c0,2.8-1.9,5-4.5,5C35.5,24.3,33.5,24.3,31.5,24.3z"/>
<path class="st0" d="M10,1.6c1.4,0,2.7,0,4.1,0c0,11.8,0,23.5,0,35.3c-1.4,0-2.7,0-4.1,0C10,25.2,10,13.5,10,1.6z"/>
<path class="st0" d="M53.8,25.2c-1.4,0-2.7,0-4.1,0c0-7.8,0-15.6,0-23.5c1.3,0,2.6,0,4.1,0C53.8,9.4,53.8,17.2,53.8,25.2z"/>
<path class="st0" d="M33.6,1.7c0,3.3,0,6.6,0,9.9c-1.4,0-2.7,0-4.1,0c0-3.3,0-6.6,0-9.9C30.8,1.7,32.2,1.7,33.6,1.7z"/>
<path class="st0" d="M35.1,46.1c-1.7,0-3.5,0-5.3,0c-1.5,0-2.8-1.5-2.5-3.2c0.4-1.5,1.5-2.1,2.8-2.1c3.5,0,6.7,0,10.3,0
	c0.4,0,0.4,0,0.7,0h5.6c2.5,0,5.3,0,7.8,0c-0.7-0.7-1.5-1.5-2.1-2.1c-0.6-0.7-0.9-1.4-0.6-2.4c0.4-2.1,2.8-2.5,4.6-1.1
	c2.1,1.7,4,3.8,5.6,5.6c0.6,0.7,1.4,1.4,1.6,2.1c0.1,0.3,0.1,0.6,0.1,0.9c-0.4,0.7-1.6,2-1.6,2.1c-0.1,0.1-3.1,3-4.6,4.5
	c-0.4,0.4-0.7,1.1-1.5,1.5c-1.5,1.1-3.2,0.7-3.9-0.7c-0.6-0.9-0.5-1.7,0.1-2.7c0.1-0.2,0.2-0.3,0.3-0.5c0.7-0.7,1.5-1.1,2.1-1.7
	c-2.8,0-5.3,0-7.8,0h-5.6"/>
<path class="st0" d="M45.8,37.3c0.9,0,1.8,0,2.7,0c0-0.3,0-0.7,0-0.8c0-0.2,0.2-1.1,0.3-1.4c0.1-0.3,0.6-1.1,0.7-1.3
	c0.1-0.2,1.2-1,1.2-1l2-0.4l2.2,0.1l3.3,0.7l2.2,1.5c0,0,0.4,0.4,1,1c0.8-0.9,1.2-2.2,1.2-3.6c0-2.8-1.9-4.9-4.5-4.9
	c-1.9,0-3.9,0-5.9,0s-4.1,0-6.2,0c-2.5,0-4.4,2.1-4.5,4.9C41.3,35,43.2,37.3,45.8,37.3z"/>
<g>
	<path class="st0" d="M49.7,47.5c0,0.2,0,0.4,0,0.6l0.6-0.6C50.3,47.5,50,47.5,49.7,47.5z"/>
	<path class="st0" d="M54,54.2c-0.2,0-0.5,0-0.7,0c-0.4,0-0.9,0-1.7-0.1s-1.1-0.3-1.4-0.6c-0.2-0.2-0.4-0.3-0.6-0.4
		c0,3.1,0,6.1,0,9.2c1.4,0,2.8,0,4.3,0C54,59.7,54,56.9,54,54.2z"/>
</g>
<path class="st0" d="M29.4,62.4c1.4,0,2.9,0,4.3-0.1c0-4.3,0-8.7,0-13c-1.2,0-2.8,0-4.3,0.1C29.4,53.7,29.4,58,29.4,62.4z"/>
<path class="st0" d="M33.7,27c-1.5,0-2.9,0-4.3,0c0,0.7,0,1.3,0,1.9c0,2.9,0,5.7,0,8.6l4.3,0.1C33.7,34,33.7,30.5,33.7,27z"/>
</svg>
