<?xml version="1.0" encoding="utf-8"?>
<!-- Generator: Adobe Illustrator 26.0.3, SVG Export Plug-In . SVG Version: 6.00 Build 0)  -->
<svg version="1.1" id="Ebene_1" xmlns="http://www.w3.org/2000/svg" xmlns:xlink="http://www.w3.org/1999/xlink" x="0px" y="0px"
	 viewBox="0 0 64 64" style="enable-background:new 0 0 64 64;" xml:space="preserve">
<style type="text/css">
	.st0{fill:none;}
	.st1{fill:#4D4D4D;}
</style>
<path class="st0" d="M36.5,15.8c-1.1,0.1-2.2,0.2-3.4,0.3c-8.8,0.8-17.7,1.6-26.5,2.4c-1.4,0.1-2.2,1-2.1,2.4c0.1,1,0.2,2,0.3,3
	C5.5,31.8,6.2,39.7,7,47.6c0.1,1.4,1,2.2,2.4,2.1c5.6-0.5,11.1-1,16.6-1.5c4.4-0.4,8.8-0.8,13.3-1.2c1.6-0.1,2.4-1.1,2.3-2.7
	c0-0.3-0.1-0.7-0.1-1h-2v-0.5h2c-0.1-1.6-0.3-3.2-0.4-4.8h-1.2v-0.4h1.2c-0.6-6.5-1.2-13.1-1.8-19.6C39,16.5,38,15.6,36.5,15.8z"/>
<path class="st1" d="M40.1,41.1c-2.2,0-4,0-6.2,0c-1.8,0-3.6,0-5.5,0c-1.5,0-2.9-1.5-2.6-3.3c0.4-1.5,1.5-2.2,2.9-2.2
	c3.6,0,6.9,0,10.6,0c0.4,0,0.4,0,0.7,0l5.8,0c2.6,0,5.5,0,8,0c-0.7-0.7-1.5-1.5-2.2-2.2C51,32.7,50.7,32,51,30.9
	c0.4-2.2,2.9-2.6,4.7-1.1c2.2,1.8,4.1,3.9,5.8,5.8c0.6,0.7,1.4,1.4,1.6,2.2c0.1,0.3,0.1,0.6,0.1,0.9c-0.4,0.7-1.7,2.1-1.7,2.2
	c-0.1,0.1-3.2,3.1-4.7,4.6c-0.4,0.4-0.7,1.1-1.5,1.5c-1.5,1.1-3.3,0.7-4-0.7c-0.6-0.9-0.5-1.8,0.1-2.8c0.1-0.2,0.2-0.3,0.3-0.5
	c0.7-0.7,1.5-1.1,2.2-1.8c-2.9,0-5.5,0-8,0H40.1z"/>
<path class="st1" d="M46.2,44.4c-0.4,1.2-1.4,1.8-2.9,1.8c-5.4,0-10.8,0-16.3-0.1c-6.7,0-13.4-0.1-20.3-0.1c-1.6,0-2.6-1.1-2.5-2.8
	c0.1-9.7,0.1-19.3,0.1-29c0-1.2,0-2.4,0-3.7c0-1.7,1.1-2.7,2.8-2.7C17.9,8,28.7,8,39.5,8.1c1.3,0,2.7,0,4.2,0c1.8,0.1,2.8,1.1,2.9,3
	c0,7.1-0.1,15.8-0.1,22.9l3.5,0C50,25.8,50,16.4,50,8.2c0.1-1.9-0.9-3-3.1-3.1C42.7,5.1,38.4,5,34.2,5C29.4,5,24.7,5,20,5
	C14.6,5,9.1,4.9,3.7,4.9C1.9,4.9,0.8,6,0.9,7.8c-0.1,3.3,0,6.5-0.1,9.8C0.7,29.9,0.7,42.5,0.7,55c-0.1,1.9,1.1,3,2.9,3.1
	c2.1,0.1,4.2,0,6.2,0c5.4,0,10.8,0,16,0.1c7.1,0.1,14,0.1,21.1,0.1c1.7,0,2.8-1.1,2.8-2.8c0-3.6,0.1-9.3,0-12.9l-3.2,0L46.2,44.4z"
	/>
</svg>
