<?xml version="1.0" encoding="utf-8"?>
<!-- Generator: Adobe Illustrator 26.0.3, SVG Export Plug-In . SVG Version: 6.00 Build 0)  -->
<svg version="1.1" id="Ebene_1" xmlns="http://www.w3.org/2000/svg" xmlns:xlink="http://www.w3.org/1999/xlink" x="0px" y="0px"
	 viewBox="0 0 64 64" style="enable-background:new 0 0 64 64;" xml:space="preserve">
<style type="text/css">
	.st0{fill:none;}
	.st1{fill:#4D4D4D;}
	.st2{fill:#FFFFFF;}
</style>
<path class="st0" d="M146.3-12.4c-1.1,0.1-2.2,0.2-3.4,0.3c-8.8,0.8-17.7,1.6-26.5,2.4c-1.4,0.1-2.2,1-2.1,2.4c0.1,1,0.2,2,0.3,3
	c0.7,7.9,1.4,15.8,2.2,23.7c0.1,1.4,1,2.2,2.4,2.1c5.6-0.5,11.1-1,16.6-1.5c4.4-0.4,8.8-0.8,13.3-1.2c1.6-0.1,2.4-1.1,2.3-2.7
	c0-0.3-0.1-0.7-0.1-1h-2v-0.5h2c-0.1-1.6-0.3-3.2-0.4-4.8h-1.2V9.4h1.2c-0.6-6.5-1.2-13.1-1.8-19.6
	C148.8-11.7,147.8-12.5,146.3-12.4z"/>
<path class="st1" d="M151.3,16.2c0.1,1.6-0.7,2.5-2.3,2.7c-4.4,0.4-8.8,0.8-13.3,1.2c-5.5,0.5-11,1-16.6,1.5c-1.3,0-2.2-0.7-2.4-2.1
	c-0.7-7.9-1.4-15.8-2.2-23.7c-0.1-1-0.2-2-0.3-3c-0.1-1.4,0.7-2.3,2.1-2.4c8.8-0.8,17.7-1.6,26.5-2.4c1.1-0.1,2.2-0.2,3.4-0.3
	c1.5-0.1,2.4,0.7,2.6,2.2c0.6,6.5,1.2,13.1,1.8,19.6h2.9c0-0.3-0.1-0.6-0.1-0.9c-0.6-7.1-1.3-14.2-2-21.3c-0.1-1.6-1-2.4-2.8-2.3
	c-3.4,0.3-6.9,0.6-10.4,0.9c-3.9,0.4-7.7,0.7-11.6,1.1c-4.4,0.4-8.9,0.8-13.3,1.2c-1.5,0.1-2.3,1.1-2.1,2.6c0.2,2.7,0.5,5.3,0.7,8
	c0.9,10.2,1.8,20.5,2.8,30.7c0.1,1.6,1.1,2.4,2.6,2.3c1.7-0.1,3.4-0.3,5.1-0.5c4.4-0.4,8.8-0.8,13.1-1.2c5.8-0.5,11.5-1,17.3-1.6
	c1.4-0.1,2.2-1.1,2.1-2.5c-0.3-3.6-0.6-7.1-1-10.7h-2.9C151.3,15.5,151.3,15.8,151.3,16.2z"/>
<path class="st1" d="M159.3-19.1c-11.5-2.2-23-4.3-34.4-6.5c-1.8-0.3-2.8,0.3-3.1,2.1c-0.4,1.9-0.7,3.9-1.1,5.8
	c-0.2,0.9,0.1,1.3,1,1.5c0.9,0.2,1.6-0.2,1.8-1c0.3-1.3,0.5-2.6,0.8-3.9c0.3-1.2,1.3-1.9,2.6-1.7c1.9,0.3,3.7,0.7,5.6,1
	c5,0.9,10,1.9,14.9,2.8c3.1,0.6,6.1,1.1,9.1,1.7c1.4,0.3,2.1,1.3,1.8,2.7c-0.3,1.5-0.5,3-0.8,4.4c-0.6,3.3-1.3,6.7-1.9,10
	c-0.5,2.7-0.1,5.3,0.1,7.9c0,0.5,0.1,1,0.1,1.5h0.8c1.6-8.4,3.2-16.9,4.8-25.3C161.9-17.9,161.3-18.8,159.3-19.1z"/>
<g>
	<path class="st1" d="M-49.6-28.4c2.9-3.3,5.3-6.2,7.9-9.1c0.4-0.4,1-0.7,1.5-0.7c3.5-0.1,7.1,0,11.2,0c-1.8,2.1-3.6,3.8-4.9,5.8
		c-2.2,3.4-5,4.6-8.9,4.1C-44.9-28.7-47.1-28.4-49.6-28.4z"/>
	<path class="st1" d="M-33.2-28.4c2.9-3.3,5.4-6.3,8-9.2c0.3-0.3,0.8-0.6,1.2-0.6c3.7,0,7.3,0,11.5,0c-2.9,3.4-5.5,6.4-8.2,9.4
		c-0.3,0.3-0.8,0.4-1.3,0.4C-25.6-28.4-29.1-28.4-33.2-28.4z"/>
	<path class="st1" d="M-60.6-28.4c0-2.4,0-4.4,0-6.5c0.1-1.9,1.1-3.2,3-3.3c3.9-0.1,7.8,0,12.1,0c-2.9,3.4-5.5,6.4-8.2,9.4
		c-0.3,0.4-1.1,0.4-1.7,0.4C-57-28.4-58.7-28.4-60.6-28.4z"/>
	<path class="st1" d="M-16.6-28.6c2.7-3.2,5.2-6.3,8-9.1c0.6-0.6,2.5-0.7,3.4-0.3c1,0.5,2,1.8,2.1,2.9c0.3,2.1,0.1,4.2,0.1,6.5
		C-7.5-28.6-11.9-28.6-16.6-28.6z"/>
	<path class="st1" d="M-5.3-26.2h-53.6c-1.1,0-1.9,0.9-1.9,1.9c0,11,0,22,0,33.1c0,3.3,1.1,4.4,4.5,4.4c11.6,0,23.3,0,34.9,0h14.1
		c0.6,0,2.5-0.4,2.9-0.9l0.8-0.8c0.3-0.3,0.3-2.4,0.3-2.9v-32.9C-3.4-25.4-4.2-26.2-5.3-26.2z M-36.4,1.7c0-5.5,0-10.7,0-16.2
		c4.3,2.7,8.5,5.3,13,8.1C-27.9-3.7-32-1.1-36.4,1.7z"/>
</g>
<path class="st1" d="M228.4,76.3c-1.9,0-3.5,0-5.4,0c-1.6,0-3.2,0-4.8,0c-1.3,0-2.5-1.3-2.2-2.9c0.3-1.3,1.3-1.9,2.5-1.9
	c3.2,0,6,0,9.2,0c0.3,0,0.3,0,0.6,0l5.1,0c2.2,0,4.8,0,7,0c-0.6-0.6-1.3-1.3-1.9-1.9c-0.6-0.6-1-1.3-0.6-2.2c0.3-1.9,2.5-2.2,4.1-1
	c1.9,1.6,3.6,3.4,5.1,5.1c0.5,0.6,1.2,1.2,1.4,1.9c0.1,0.3,0,0.5,0,0.8c-0.3,0.6-1.5,1.9-1.5,1.9c-0.1,0.1-2.8,2.7-4.1,4
	c-0.3,0.3-0.6,1-1.3,1.3c-1.3,1-2.9,0.6-3.5-0.6c-0.5-0.8-0.4-1.6,0-2.4c0.1-0.2,0.2-0.3,0.3-0.5c0.6-0.6,1.3-1,1.9-1.6
	c-2.5,0-4.8,0-7,0H228.4z"/>
<path class="st2" d="M180.2,159.8c0-9.2,0-17.4,0-26.6c7.4,4.5,14.3,8.6,22.1,13.3C194.6,151.2,187.6,155.3,180.2,159.8z"/>
<path class="st1" d="M31.5,46.8c-1.9,0-3.8,0-5.6,0c-1.5,0-3-2-2.6-4.5c0.4-2,1.5-3,3-3c3.8,0,7.1,0,10.9,0c0.4,0,0.4,0,0.8,0h6
	c1,0,1.8,0,2.5,0c0.9-0.6,1.1-1,2.1-1.6c-0.3-0.7-0.4-1.7-0.1-2.8c0.4-2.8,4.3-3.1,6.3-1.6c1.6-2.6,0.5-5.6-3.1-7.8
	C40.4,18.7,29.2,12,18,5.4C12.5,2.2,8.7,4.6,8.6,11c-0.1,6.6,0,13.2,0,19.8c0,6.9-0.1,13.8,0,20.7c0.1,5.7,3.9,8,8.8,5.1
	c5.6-3.3,11.1-6.6,16.7-9.9C33.2,46.8,32.4,46.8,31.5,46.8z"/>
<path class="st1" d="M38.6,45.6c-2.2,0-4,0-6.2,0c-1.8,0-3.6,0-5.5,0c-1.5,0-2.9-1.5-2.6-3.3c0.4-1.5,1.5-2.2,2.9-2.2
	c3.6,0,6.9,0,10.6,0c0.4,0,0.4,0,0.7,0l5.8,0c2.6,0,5.5,0,8,0c-0.7-0.7-1.5-1.5-2.2-2.2c-0.7-0.7-1.1-1.5-0.7-2.6
	c0.4-2.2,2.9-2.6,4.7-1.1c2.2,1.8,4.1,3.9,5.8,5.8c0.6,0.7,1.4,1.4,1.6,2.2c0.1,0.3,0.1,0.6,0.1,0.9c-0.4,0.7-1.7,2.1-1.7,2.2
	c-0.1,0.1-3.2,3.1-4.7,4.6c-0.4,0.4-0.7,1.1-1.5,1.5c-1.5,1.1-3.3,0.7-4-0.7c-0.6-0.9-0.5-1.8,0.1-2.8c0.1-0.2,0.2-0.3,0.3-0.5
	c0.7-0.7,1.5-1.1,2.2-1.8c-2.9,0-5.5,0-8,0H38.6z"/>
</svg>
