<?xml version="1.0" encoding="utf-8"?>
<!-- Generator: Adobe Illustrator 26.0.3, SVG Export Plug-In . SVG Version: 6.00 Build 0)  -->
<svg version="1.1" id="Ebene_1" xmlns="http://www.w3.org/2000/svg" xmlns:xlink="http://www.w3.org/1999/xlink" x="0px" y="0px"
	 viewBox="0 0 22 22" style="enable-background:new 0 0 22 22;" xml:space="preserve">
<style type="text/css">
	.st0{fill:#4D4D4D;}
</style>
<path class="st0" d="M18.8,14c0.6,0,1.2,0,1.9,0c0.5,0,1-0.5,0.9-1.1c-0.1-0.5-0.5-0.8-1-0.8c-1.2,0-2.4,0-3.7,0c-0.1,0-0.1,0-0.2,0
	h-2c-0.9,0-1.9,0-2.8,0c0.2-0.2,0.5-0.5,0.8-0.8c0.2-0.2,0.3-0.5,0.2-0.9c-0.1-0.8-1-0.9-1.6-0.4c-0.8,0.6-1.4,1.3-2,2
	c-0.2,0.2-0.5,0.5-0.6,0.8c0,0.1,0,0.2,0,0.3c0.1,0.2,0.6,0.7,0.6,0.8c0,0,1.1,1.1,1.6,1.6c0.1,0.1,0.2,0.4,0.5,0.5
	c0.5,0.4,1.1,0.2,1.4-0.2c0.2-0.3,0.2-0.6,0-1c0-0.1-0.1-0.1-0.1-0.2c-0.2-0.2-0.5-0.4-0.8-0.6c1,0,1.9,0,2.8,0h2"/>
<path class="st0" d="M9.5,11.9"/>
<path class="st0" d="M10.2,4.9c-0.1,0-0.1,0-0.2,0c-1.6,0.2-2.9,1-3.9,2.3c-0.7,0.9-1.1,1.9-1.3,3c1.6,0,3.3,0,4.9,0.1l0.5-0.5
	C10.2,8.1,10.2,6.5,10.2,4.9z"/>
<path class="st0" d="M7.4,13.6l-0.2-0.2v-0.6l0.3-0.3l0.7-0.7c-1.1,0-2.2,0-3.4,0c0,0.1,0,0.1,0,0.2c0.3,1.6,1.1,2.9,2.3,3.9
	c0.9,0.7,2,1.1,3.1,1.3c0-0.3,0-0.6,0-0.9L10,16.1L7.4,13.6z"/>
<path class="st0" d="M13.9,15.1l0,0.7l-0.2,0.3l-0.5,0.5l-0.8,0.3l-0.6,0c0,0.1,0,0.2,0,0.2c0.1,0,0.1,0,0.2,0
	c1.6-0.2,2.9-1,3.9-2.3c0-0.1,0.1-0.1,0.1-0.2h-2.3L13.9,15.1z"/>
<path class="st0" d="M13.1,9l0.6,0.5l0.2,0.7c1.1,0,2.3,0,3.4,0c0-0.1,0-0.1,0-0.2c-0.3-1.6-1.1-2.9-2.3-3.9c-0.9-0.7-2-1.1-3.1-1.3
	c0,1.4,0,2.7,0,4.1l0.4-0.1L13.1,9z"/>
<path class="st0" d="M17.9,14.8c-1.2,2.2-3.5,3.8-6.1,4c0-0.6,0-1.1,0-1.6c-0.5,0-1.1,0-1.6,0c0,0.6,0,1.1,0,1.6
	c-3.6-0.3-6.8-3.4-7-7c0.6,0,1.1,0,1.6,0c0-0.6,0-1.1,0-1.6c-0.6,0-1.1,0-1.6,0c0.3-3.6,3.4-6.8,7-7c0,0.6,0,1.1,0,1.6
	c0.6,0,1.1,0,1.6,0c0-0.6,0-1.1,0-1.6c3.6,0.3,6.8,3.4,7,7c-0.6,0-1.1,0-1.6,0c0,0.4,0,0.7,0,1.1l4.7,0.1c0-0.4,0-0.8,0-1.1
	c-0.5,0-1,0-1.5,0c-0.8-4.9-3.7-7.8-8.6-8.6c0-0.5,0-1,0-1.5c-0.6,0-1.1,0-1.6,0c0,0.5,0,1,0,1.5c-4.9,0.8-7.8,3.7-8.6,8.6
	c-0.5,0-1,0-1.5,0c0,0.6,0,1.1,0,1.6c0.6,0,1.1,0,1.6,0C1.9,14,2.8,16,4.4,17.6c1.6,1.6,3.6,2.5,5.8,2.8c0,0.6,0,1.1,0,1.6
	c0.5,0,1,0,1.5,0c0-0.6,0-1.1,0-1.6c3.3-0.2,6.4-2.3,7.8-5.6H17.9z"/>
</svg>
