<?xml version="1.0" encoding="utf-8"?>
<!-- Generator: Adobe Illustrator 26.0.3, SVG Export Plug-In . SVG Version: 6.00 Build 0)  -->
<svg version="1.1" id="Ebene_1" xmlns="http://www.w3.org/2000/svg" xmlns:xlink="http://www.w3.org/1999/xlink" x="0px" y="0px"
	 viewBox="0 0 64 64" style="enable-background:new 0 0 64 64;" xml:space="preserve">
<style type="text/css">
	.st0{fill:#4D4D4D;}
</style>
<path class="st0" d="M56.5,32c2.3,0,4.6,0,7,0c-4.1,5.5-8.2,10.8-12.3,16.3C47.2,42.8,43.1,37.5,39,32c2.4,0,4.6,0,6.9,0
	c0.3-5.4-3-13-10.7-16.2c-8.1-3.3-17.4-0.2-21.8,7.3c-4.4,7.5-2.7,17,4,22.5c6.8,5.5,17.1,5.4,23.9-1.7c2.1,2.8,4.2,5.6,6.4,8.4
	c-3.1,2.9-6.6,5.1-10.7,6.3c-6.2,2-12.5,1.9-18.5-0.5C5.1,53-1.9,39,1.3,25.6C4.4,12.2,16.5,3.3,29.9,4c7.4,0.4,13.7,3.3,18.8,8.7
	C53.9,18.1,56.4,24.5,56.5,32z"/>
</svg>
